<?xml version="1.0" encoding="UTF-8"?>
<svg id="_图层_1" data-name=" 图层 1" xmlns="http://www.w3.org/2000/svg" viewBox="0 0 1440 1441">
  <defs>
    <style>
      .cls-1 {
        fill: #020202;
      }

      .cls-2 {
        fill: none;
      }

      .cls-3 {
        fill: #030303;
      }

      .cls-4 {
        fill: #fefefe;
      }
    </style>
  </defs>
  <path id="_背景" data-name="背景" class="cls-4" d="M429.09,0h581.82c236.98,0,429.09,192.11,429.09,429.09v582.82c0,236.98-192.11,429.09-429.09,429.09H429.09C192.11,1441,0,1248.89,0,1011.91V429.09C0,192.11,192.11,0,429.09,0Z"/>
  <g id="_手写" data-name="手写">
    <path class="cls-2" d="M1022.13,672.5c3.98-2.95,7.95-5.92,11.78-9.07,10.56-9.05,25.03-20.87,26.28-35.58-.13-1.23-.86-2.52-2.19-3.85-10.21-1.73-19.92,5.3-27.09,12.06-11.56,11.82-25.9,28.4-25.9,45.94,2.75,0,7.64-2.56,14.67-7.68.83-.62,1.64-1.22,2.45-1.82Z"/>
    <path class="cls-1" d="M1284.03,676c-1.59-3.17-3.99-5.23-7-7-4.8-.63-13,1.36-24.6,5.96-8.65,3.45-17.34,6.8-26.07,10.05-1.2.44-2.36.87-3.52,1.3-14.88,5.53-29.98,10.34-45.12,15.12-2.68.85-5.36,1.69-8.04,2.54-.9.28-1.77.55-2.64.83-4.03,1.27-8.07,2.54-12.08,3.89-8.76,3.02-17.51,5.6-26.52,7.79-2.36.56-4.72,1.13-7.07,1.71-9.35,2.31-18.69,4.31-28.2,5.83-3.02.48-6.03.95-9.03,1.48-10.71,1.97-21.31,2.78-32.19,2.85-.7.01-1.38.01-2.06.01-13.53.14-24.76-1.19-35.88-9.38-2.62-2.69-4.87-5.12-5-9,2.39-2.33,5.09-4.28,8.09-5.85,15.83-8.43,31.57-19.17,44.04-32.15.63-.67,1.25-1.33,1.87-1.99,3.3-3.41,6.56-6.84,9.68-10.42,10.87-12.95,15.69-25.88,14.32-42.58-2.07-6.21-5.44-11.43-11.01-14.97-9.82-5.08-21.96-5.75-32.61-2.9-25.61,9.34-46.93,30.18-59.16,54.31-.42.87-.82,1.72-1.23,2.56-4.76,9.31-9.11,19.61-9.08,30.23.03,4.08-.08,7.76-.92,11.77-2.5,3.33-5.42,5.13-9.1,7.03-1.36.7-2.7,1.42-4.04,2.15-4.81,2.67-9.67,5.22-14.58,7.68-.77.39-1.53.76-2.28,1.14-19.63,9.94-46.23,23.94-69,21-4.47-1.49-7.13-3.74-9.81-7.62-2.4-6.81-1.46-13.68.54-20.5.26-.83.51-1.64.77-2.44,2.71-8.73,6.23-16.82,10.29-25,1.92-3.86,3.83-7.74,5.69-11.63.52-1.08,1.02-2.13,1.52-3.18.5-1.02,1-2,1.49-2.99,3.51-7.39,5.28-14.55,2.51-22.51-3.85-4.09-7.88-6.66-13.38-7.88-6.67,1.39-13.97,7.51-21.9,18.36-4.25,5.85-8.66,11.49-13.92,16.46-2.6,2.15-5.17,4.31-7.59,6.68-2.89,2.94-5.79,5.8-8.91,8.5-2.35,2.03-4.67,4.08-6.96,6.18-10.19,9.43-20.52,18.68-31.48,27.2-4,3.09-7.93,6.22-11.77,9.5-9.33,7.99-18.68,17.08-30.11,21.88,3.19-13.27,6.77-26.43,10.76-39.48,4.06-13.13,7.55-26.32,10.61-39.72.21-.95.42-1.87.63-2.79,1.82-7.86,3.63-15.64,3.35-23.76-.53-3.41-1.77-5-4.35-7.24-4.87-4.1-7.88-4.5-14-4-4.97,1.65-10.63,6.38-17,14.19-28.83,26.85-60.48,50.16-94.96,69.92-.72.41-1.41.8-2.1,1.2-3.13,1.81-6.22,3.43-9.62,4.67-1.64.18-3.09-.37-4.36-1.66-5.46-6.48-12.08-11.59-19.14-16.2-4.73-3.08-9.42-6.2-14.01-9.5-.67-.49-1.34-.97-1.99-1.44-2.33-1.66-4.63-3.33-6.81-5.19-3.28-3.64-4.78-6.02-5-11,6.45-6.9,13.69-12.96,21.72-18.19,7.71-5.31,15.26-10.52,21.28-17.81,3.64-5.23,4.9-9.67,4-16-1.87-4.15-4.22-6.51-8.06-8.94-8.74-3.01-16.99-1.27-25.13,2.52-.96.48-1.88.94-2.81,1.41-6.13,2.97-11.34,6.62-16.59,10.97-.82.69-1.62,1.36-2.41,2.03-4.38,3.6-8.54,7.38-12.5,11.44-7.99,9.29-13.08,17.82-12.28,30.29.34,4.82.75,9.51-.22,14.28-3.01,3.7-6.57,6.83-10.67,9.39-2.88,1.7-5.57,3.48-8.22,5.53-34.15,26.73-87.83,65.71-134.11,60.08-6.33-1.51-11.22-5.59-15.04-10.75-8.23-13.61-7.4-31.79-4.65-46.91.24-1.13.46-2.24.69-3.34,5.38-27.25,14.3-49.89,29.26-73.29,1.51-2.34,3.77-5.87,6.78-10.59.58-.91,1.15-1.8,1.71-2.68,11.91-18.64,23.36-37.55,34.14-56.87,1.56-2.81,3.13-5.6,4.72-8.39,32.74-57.14,61.71-118.08,81.74-180.91.55-1.75,1.11-3.51,1.66-5.27,2.8-8.48,5.21-16.48,5.48-25.46.01-.82.02-1.62.02-2.42.02-2.81-.14-5.31-.5-8.12-2.21-3.84-5.1-5.9-8.99-8-16.52-2.3-44.57,36.84-84.17,117.4-.9,1.83-1.8,3.66-2.7,5.49-24.87,50.51-48.19,102-66.82,155.18-3.62,10.39-7.38,20.72-11.31,31-.47,1.24-.94,2.47-1.41,3.68-.44,1.16-.88,2.29-1.31,3.42-1.17,3.05-2.3,6.1-3.35,9.2-.29.9-.58,1.77-.86,2.64-6.9-3.28-13.89-6.42-21.54-7.29-21.03-.72-44.59,15.16-60.42,27.84-1.03.83-2.04,1.64-3.04,2.45-29.15,22.22-52.34,55.65-68.47,88.27-6.78,14.41-9.18,29.52-3.86,44.81,2.56,5.66,6.12,10.22,11.82,12.92,8.22,2.47,17.61,2.1,25.51-1.13.68-.29,1.33-.58,1.99-.87,10.26-4.5,19.54-9.96,28.41-16.77.54-.41,1.06-.82,1.59-1.23,8.97-6.91,17.1-14.48,24.56-23,1.8-2.1,3.6-4.18,5.45-6.23,8.09-8.91,15.95-18.01,23.55-27.34,2.88-3.55,5.79-7.09,8.73-10.59.49-.59.97-1.16,1.45-1.73,3.26-3.89,6.62-7.58,10.25-11.12-.04,3.31-.08,6.61-.1,9.92-.01,1.36-.02,2.72-.03,4.08-.15,11.71.6,20.53,5.64,31.19,6.67,12.64,15.93,21.35,29.67,25.85,30.45,7.5,62.16-4.71,88.81-18.97.67-.37,1.34-.73,2-1.08,18.47-9.83,36.01-20.86,52.8-33.35.74-.56,1.47-1.11,2.2-1.65,8.49-6.32,16.83-12.73,24.81-19.69,3.21-2.85,6.17-5.65,10.19-7.31,2.46,1.97,5.03,3.66,7.73,5.28,7.3,4.36,14.54,8.79,21.56,13.59.76.53,1.52,1.05,2.27,1.57.76.51,1.49,1,2.22,1.5.7.48,1.37.96,2.04,1.43.62.43,1.21.84,1.8,1.25,1.71,1.7,2.01,3.03,2.39,5.38-4.34,2.64-8.69,5.25-13.1,7.77-1.09.61-2.15,1.21-3.21,1.81-2.23,1.26-4.46,2.53-6.69,3.79-4.39,2.45-8.75,4.93-13,7.62-6.48,4.72-15.04,10.15-16.43,18.62-.15,5.73.73,8.31,4.43,12.82,6.12,5.22,12.74,7.13,20.71,6.75.78-.06,1.53-.13,2.29-.19,13.68-1.02,27.17-7.91,38.38-15.44,8.08-5.97,17.32-13.98,19.11-24.39.25-2,.64-4.04,1.18-6.13,3.09-4.43,7.04-8.04,11.84-10.84,1.22-.72,2.44-1.47,3.64-2.22,2.48-1.57,4.96-3.13,7.46-4.67,2.83-1.73,5.65-3.47,8.45-5.26,12.04-7.8,24.22-15.36,36.5-22.77,2.66-1.6,5.31-3.2,7.96-4.81,1.56-.95,3.12-1.9,4.69-2.85.73-.43,1.46-.87,2.17-1.3,5.35-3.29,10.58-5.52,16.62-7.31-1,10.71-2.91,21.29-5.72,31.74-.6,2.46-1.2,4.93-1.79,7.39-4.26,17.93-7.59,47.1-22.89,59-1.9,1.37-3.77,2.77-5.62,4.19-1.08.83-2.16,1.67-3.24,2.5-5.77,4.38-11.33,8.96-16.83,13.67-.99.86-1.96,1.69-2.92,2.52-4.94,4.22-9.73,8.59-14.5,13-2.94,2.72-5.87,5.44-8.87,8.08-3.15,2.72-6.21,5.45-9.13,8.42-1.68,1.71-3.37,3.38-5.18,4.96-5.79,4.9-11.15,10.21-16.5,15.58-.53.54-1.05,1.06-1.57,1.58-7.36,7.37-14.67,14.77-21.66,22.5-1.36,1.5-2.71,3-4.09,4.48-5.17,5.52-10.29,11.02-15.07,16.89-2.26,2.82-4.53,5.6-6.88,8.34-36.21,41.84-71.82,93.46-84.41,148-.54,2.43-1.07,4.85-1.68,7.27-2.06,8.07-2.67,15.82-2.81,24.13-.01,1.23-.02,2.43-.03,3.63-.01,1.18-.03,2.32-.04,3.46.07,11.91,2.72,21.83,11.17,30.48,7.4,4.98,14.18,5.63,23.02,5.41,16.87-1.16,39.16-17.61,66.86-49.35,1.82-2.1,3.65-4.17,5.52-6.23,39.19-43,68.55-95.87,93.23-148.19.55-1.17,1.09-2.31,1.62-3.45,7.26-15.45,14.19-31.03,20.69-46.81.45-1.08.88-2.14,1.31-3.19,7.13-17.41,13.22-35.15,19.21-52.97,3.17-9.44,6.33-18.87,9.68-28.25.31-.85.61-1.7.91-2.54,1.23-3.48,2.15-7.09,4.67-9.85.51-.47,1.02-.93,1.53-1.39,13.68-12.71,28.53-24.04,43.38-35.33,6.32-4.8,12.63-9.63,18.79-14.64.69-.56,1.35-1.11,2.02-1.65.68-.56,1.34-1.1,2-1.64,11.6-9.47,23.37-18.39,35.81-26.74-1.59,6.71-2.19,13.33-2.34,20.22-.01.99-.03,1.94-.04,2.9-.2,6.91.5,12.28,3.26,18.66,4.57,9.11,11.44,14.61,20.93,18.32,31.67,9.22,66.08-8.2,93.3-22.86.63-.34,1.25-.68,1.87-1.01,3.17-1.7,6.34-3.41,9.5-5.13,1.21-.66,2.42-1.31,3.63-1.97.59-.31,1.16-.62,1.73-.93,3.99-2.18,7.81-3.87,12.15-5.2,2.35,3.39,4.74,6.7,7.61,9.66,16.85,15.05,38.35,20.09,60.34,19.88.87-.01,1.71-.02,2.55-.03,14.49-.08,28.5-.84,42.72-3.89.95-.21,1.86-.41,2.78-.61,11.52-2.38,22.89-5.06,34.14-8.51,2.64-.81,5.28-1.61,7.92-2.39,25.71-7.57,51.39-15.42,76.57-24.6,6.25-2.3,12.52-4.57,18.84-6.7.78-.27,1.55-.52,2.31-.78,3.11-1.05,6.22-2.1,9.34-3.15,11.7-3.87,26.89-7.45,35.81-16.31,2.75-3.8,2.6-6.99,2.06-11.56ZM404.69,578.21c.4-1.16.8-2.31,1.21-3.51.45-1.26.89-2.51,1.34-3.77.46-1.3.91-2.6,1.37-3.9,6.28-17.74,13.44-35.1,21.47-52.11,1.2-2.54,2.38-5.09,3.56-7.64,13.35-28.73,26.97-57.33,42.88-84.74,2.46-4.29,4.8-8.64,7.15-12.99,4.76-8.75,9.92-17.19,15.31-25.56h.02c1.15,3.45.85,4.23-.27,7.57-.31.93-.61,1.85-.93,2.81-.35,1.01-.7,2.03-1.06,3.07-.37,1.07-.74,2.16-1.11,3.25-14.3,41.36-32.48,82.04-53.18,120.58-1.68,3.13-3.34,6.26-5,9.4-10.4,19.58-20.8,39.1-33.46,57.33-1.39-3.75-.58-6.07.7-9.79ZM335,673h0c-.37,19.54-25.59,41.38-38.33,55.09-1.95,2.13-3.83,4.27-5.71,6.46-4.72,5.41-9.77,10.48-14.83,15.56-1.67,1.68-3.34,3.38-5,5.07-19.45,19.64-34.07,30.02-43.88,31.13-1.5-.21-2.92-.98-4.25-2.31-1.31-20.26,19.29-43.32,31-58,.77-.98,1.55-1.96,2.34-2.97,12.12-14.86,54.48-66.15,78.66-50.03h0s0,0,0,0ZM690.94,825.43c-.22.62-.45,1.24-.67,1.87-.74,2.05-1.5,4.09-2.26,6.13-.26.71-.53,1.43-.8,2.16-10.03,27.21-21.12,54.02-33.66,80.17-1.58,3.3-3.14,6.6-4.7,9.9-9.21,19.44-19.3,38.09-30.24,56.61-1.37,2.31-2.72,4.63-4.08,6.95-14.68,24.98-31.98,48.54-50.52,70.77-.42.51-.84,1.02-1.27,1.55-23.73,28.89-43.27,44.13-58.6,45.7-1.42-.17-2.7-.68-3.84-1.55-5.45-7.19-4-19.32-3.05-27.85.69-5,1.68-9.92,2.76-14.85.26-1.21.51-2.42.77-3.67,2.7-11.34,7.39-21.77,12.23-32.33.45-1,.91-2,1.38-3.03,13.76-30.04,31.34-57.9,51.62-83.97.93-1.21,1.86-2.42,2.8-3.63,8.24-10.64,16.87-20.92,25.94-30.86,1.88-2.09,3.73-4.2,5.58-6.32,9.46-10.83,19.53-21.13,29.69-31.32.78-.78,1.55-1.56,2.35-2.37,4.17-4.16,8.44-8.14,12.9-11.98,2.19-1.91,4.22-3.94,6.25-6.03,3.33-3.37,6.76-6.55,10.36-9.64,2.47-2.15,4.86-4.38,7.27-6.61,13.33-12.17,21.29-18.25,23.88-18.25l-.03.02c.23,4.65-.48,8.07-2.06,12.43ZM1030.91,636.06c7.17-6.76,16.88-13.79,27.09-12.06,1.33,1.33,2.06,2.62,2.19,3.85-1.25,14.71-15.72,26.53-26.28,35.58-3.83,3.15-7.8,6.12-11.78,9.07-.81.6-1.62,1.2-2.45,1.82-7.03,5.12-11.92,7.68-14.67,7.68,0-17.54,14.34-34.12,25.9-45.94Z"/>
  </g>
  <path id="_两点" data-name="两点" class="cls-3" d="M917.94,528.12c3.79,2.32,4.75,3.63,6.06,7.88.84,4.59.93,8.3-1.36,12.47-3.38,4.48-7.14,8.2-11.64,11.53-.74.6-1.48,1.2-2.25,1.81-4.23,1.83-8.21,1.84-12.75,1.19-3.53-1.7-5.4-2.78-7.13-6.31-1.68-5.19-1.97-10.82,0-15.97,6.29-10.76,16.69-17.04,29.06-12.59h.01Z"/>
  <path id="_两点-2" data-name="两点" class="cls-3" d="M795.66,513.47c3.79,2.32,4.75,3.63,6.06,7.88.84,4.59.93,8.3-1.36,12.47-3.38,4.48-7.14,8.2-11.64,11.53-.74.6-1.48,1.2-2.25,1.81-4.23,1.83-8.21,1.84-12.75,1.19-3.53-1.7-5.4-2.78-7.13-6.31-1.68-5.19-1.97-10.82,0-15.97,6.29-10.76,16.69-17.04,29.06-12.59h.01Z"/>
</svg>